{
    "asset" : {
        "generator" : "Khronos glTF Blender I/O v1.3.48",
        "version" : "2.0"
    },
    "scene" : 0,
    "scenes" : [
        {
            "name" : "Scene",
            "nodes" : [
                1,
                2,
                3
            ]
        }
    ],
    "nodes" : [
        {
            "mesh" : 0,
            "name" : "duck.001",
            "translation" : [
                0.01327971089631319,
                -0.012719571590423584,
                0.4737640619277954
            ]
        },
        {
            "children" : [
                0
            ],
            "name" : "BezierCircle"
        },
        {
            "mesh" : 1,
            "name" : "trash_mtn",
            "rotation" : [
                0,
                0.9318433403968811,
                0,
                0.36286085844039917
            ],
            "translation" : [
                0,
                -0.32921484112739563,
                0
            ]
        },
        {
            "mesh" : 2,
            "name" : "can",
            "translation" : [
                -0.38641443848609924,
                0.02060568705201149,
                1.4740478992462158
            ]
        }
    ],
    "materials" : [
        {
            "doubleSided" : true,
            "emissiveFactor" : [
                0,
                0,
                0
            ],
            "name" : "Material.001",
            "pbrMetallicRoughness" : {
                "baseColorTexture" : {
                    "index" : 0,
                    "texCoord" : 0
                },
                "metallicFactor" : 0,
                "roughnessFactor" : 0.5
            }
        },
        {
            "doubleSided" : true,
            "emissiveFactor" : [
                0,
                0,
                0
            ],
            "name" : "Material.003",
            "pbrMetallicRoughness" : {
                "baseColorTexture" : {
                    "index" : 1,
                    "texCoord" : 0
                },
                "metallicFactor" : 0,
                "roughnessFactor" : 1
            }
        },
        {
            "doubleSided" : true,
            "emissiveFactor" : [
                0,
                0,
                0
            ],
            "name" : "Material.002",
            "pbrMetallicRoughness" : {
                "baseColorTexture" : {
                    "index" : 2,
                    "texCoord" : 0
                },
                "metallicFactor" : 0,
                "roughnessFactor" : 0.09574466943740845
            }
        }
    ],
    "meshes" : [
        {
            "name" : "Cube.001",
            "primitives" : [
                {
                    "attributes" : {
                        "POSITION" : 0,
                        "NORMAL" : 1,
                        "TEXCOORD_0" : 2
                    },
                    "indices" : 3,
                    "material" : 0
                }
            ]
        },
        {
            "name" : "Plane.001",
            "primitives" : [
                {
                    "attributes" : {
                        "POSITION" : 4,
                        "NORMAL" : 5,
                        "TEXCOORD_0" : 6
                    },
                    "indices" : 7,
                    "material" : 1
                }
            ]
        },
        {
            "name" : "Cylinder.001",
            "primitives" : [
                {
                    "attributes" : {
                        "POSITION" : 8,
                        "NORMAL" : 9,
                        "TEXCOORD_0" : 10
                    },
                    "indices" : 11,
                    "material" : 2
                }
            ]
        }
    ],
    "textures" : [
        {
            "source" : 0
        },
        {
            "source" : 1
        },
        {
            "source" : 2
        }
    ],
    "images" : [
        {
            "bufferView" : 4,
            "mimeType" : "image/jpeg",
            "name" : "joshua-hoehne-PrciYr5cMcA-unsplash"
        },
        {
            "bufferView" : 9,
            "mimeType" : "image/jpeg",
            "name" : "trash"
        },
        {
            "bufferView" : 14,
            "mimeType" : "image/png",
            "name" : "coke"
        }
    ],
    "accessors" : [
        {
            "bufferView" : 0,
            "componentType" : 5126,
            "count" : 186,
            "max" : [
                0.2775082588195801,
                0.18675625324249268,
                0.11159057170152664
            ],
            "min" : [
                -0.28375759720802307,
                -0.013089886866509914,
                -0.11159056425094604
            ],
            "type" : "VEC3"
        },
        {
            "bufferView" : 1,
            "componentType" : 5126,
            "count" : 186,
            "type" : "VEC3"
        },
        {
            "bufferView" : 2,
            "componentType" : 5126,
            "count" : 186,
            "type" : "VEC2"
        },
        {
            "bufferView" : 3,
            "componentType" : 5123,
            "count" : 1104,
            "type" : "SCALAR"
        },
        {
            "bufferView" : 5,
            "componentType" : 5126,
            "count" : 25,
            "max" : [
                0.3169983923435211,
                0.7759119272232056,
                0.3169983923435211
            ],
            "min" : [
                -0.3169983923435211,
                0.06688481569290161,
                -0.3169983923435211
            ],
            "type" : "VEC3"
        },
        {
            "bufferView" : 6,
            "componentType" : 5126,
            "count" : 25,
            "type" : "VEC3"
        },
        {
            "bufferView" : 7,
            "componentType" : 5126,
            "count" : 25,
            "type" : "VEC2"
        },
        {
            "bufferView" : 8,
            "componentType" : 5123,
            "count" : 96,
            "type" : "SCALAR"
        },
        {
            "bufferView" : 10,
            "componentType" : 5126,
            "count" : 415,
            "max" : [
                0.03253711387515068,
                0.06152926757931709,
                0.03253711387515068
            ],
            "min" : [
                -0.03253711014986038,
                -0.06028670817613602,
                -0.03253711387515068
            ],
            "type" : "VEC3"
        },
        {
            "bufferView" : 11,
            "componentType" : 5126,
            "count" : 415,
            "type" : "VEC3"
        },
        {
            "bufferView" : 12,
            "componentType" : 5126,
            "count" : 415,
            "type" : "VEC2"
        },
        {
            "bufferView" : 13,
            "componentType" : 5123,
            "count" : 2196,
            "type" : "SCALAR"
        }
    ],
    "bufferViews" : [
        {
            "buffer" : 0,
            "byteLength" : 2232,
            "byteOffset" : 0
        },
        {
            "buffer" : 0,
            "byteLength" : 2232,
            "byteOffset" : 2232
        },
        {
            "buffer" : 0,
            "byteLength" : 1488,
            "byteOffset" : 4464
        },
        {
            "buffer" : 0,
            "byteLength" : 2208,
            "byteOffset" : 5952
        },
        {
            "buffer" : 0,
            "byteLength" : 612145,
            "byteOffset" : 8160
        },
        {
            "buffer" : 0,
            "byteLength" : 300,
            "byteOffset" : 620308
        },
        {
            "buffer" : 0,
            "byteLength" : 300,
            "byteOffset" : 620608
        },
        {
            "buffer" : 0,
            "byteLength" : 200,
            "byteOffset" : 620908
        },
        {
            "buffer" : 0,
            "byteLength" : 192,
            "byteOffset" : 621108
        },
        {
            "buffer" : 0,
            "byteLength" : 1580480,
            "byteOffset" : 621300
        },
        {
            "buffer" : 0,
            "byteLength" : 4980,
            "byteOffset" : 2201780
        },
        {
            "buffer" : 0,
            "byteLength" : 4980,
            "byteOffset" : 2206760
        },
        {
            "buffer" : 0,
            "byteLength" : 3320,
            "byteOffset" : 2211740
        },
        {
            "buffer" : 0,
            "byteLength" : 4392,
            "byteOffset" : 2215060
        },
        {
            "buffer" : 0,
            "byteLength" : 861079,
            "byteOffset" : 2219452
        }
    ],
    "buffers" : [
        {
            "byteLength" : 3080532,
            "uri" : "data:application/octet-stream;base64,"
        }
    ]
}
